<svg width="104" height="24" viewBox="0 0 104 24" fill="none" xmlns="http://www.w3.org/2000/svg">
<path d="M46.7998 13.3802C46.4696 13.05 46.0569 12.7198 45.6442 12.5548C45.149 12.3071 44.5712 12.2246 44.076 12.2246C43.4982 12.2246 42.9204 12.3071 42.3426 12.5548C41.8474 12.7198 41.3522 13.05 40.9395 13.3802C40.5268 13.7103 40.1966 14.2056 40.0315 14.7008C39.5363 15.9389 39.5363 17.3421 40.0315 18.5802C40.2791 19.0754 40.6093 19.5706 40.9395 19.9008C41.3522 20.3135 41.8474 20.5611 42.3426 20.7262C42.9204 20.8913 43.4982 21.0564 44.076 21.0564C44.7363 21.0564 45.3966 20.8913 45.9744 20.6437C46.4696 20.4786 46.8823 20.1484 47.2125 19.8183C47.3776 19.6532 47.3776 19.4881 47.2125 19.323L46.0569 18.4976L45.9744 18.4151C45.8093 18.3325 45.6442 18.3325 45.5617 18.4976C45.3966 18.6627 45.2315 18.8278 45.0664 18.9929C44.7363 19.1579 44.4061 19.2405 44.076 19.2405C43.6633 19.2405 43.168 19.0754 42.8379 18.8278C42.4252 18.4151 42.2601 17.9198 42.1776 17.4246C42.1776 17.3421 42.2601 17.2595 42.3426 17.2595H47.5426C47.7077 17.2595 47.8728 17.0945 47.8728 16.8468V16.4341C47.8728 15.8564 47.7903 15.2786 47.6252 14.7008C47.3776 14.2056 47.1299 13.7929 46.7998 13.3802ZM45.149 15.5262H42.3426C42.2601 15.5262 42.1776 15.4437 42.1776 15.3611C42.1776 15.196 42.2601 15.1135 42.2601 14.9484C42.3426 14.7833 42.4252 14.6183 42.5903 14.4532C42.9204 14.123 43.4156 13.9579 43.8283 13.9579C44.241 13.9579 44.6537 14.123 44.9014 14.3706C45.149 14.6183 45.3141 14.9484 45.3141 15.2786C45.3141 15.4437 45.2315 15.5262 45.149 15.5262Z" fill="white"/>
<path d="M53.4029 12.4732H52.0823C51.9997 12.4732 51.9172 12.3906 51.9172 12.3081V11.7303C51.9172 11.2351 51.9997 10.8224 52.2473 10.7398C52.495 10.5748 52.8251 10.4922 53.1553 10.4922H53.7331C53.8981 10.4922 54.0632 10.3271 54.0632 10.1621V8.67635C54.0632 8.51127 53.8981 8.34619 53.7331 8.34619H52.66C52.0823 8.34619 51.587 8.42873 51.0918 8.59381C50.6791 8.75889 50.4315 9.00651 50.1839 9.25413C49.9362 9.58429 49.7712 9.91445 49.7712 10.2446C49.6886 10.6573 49.6886 11.07 49.6886 11.4827V12.2256C49.6886 12.3081 49.6061 12.3906 49.5235 12.3906H48.4505C48.2854 12.3906 48.1204 12.5557 48.1204 12.7208V13.9589C48.1204 14.124 48.2854 14.289 48.4505 14.289H49.5235C49.6061 14.289 49.6886 14.3716 49.6886 14.4541V20.397C49.6886 20.5621 49.8537 20.7271 50.0188 20.8097H51.7521C51.9172 20.8097 52.0823 20.6446 52.0823 20.4795V14.5367C52.0823 14.4541 52.1648 14.3716 52.2473 14.3716H53.4854C53.6505 14.3716 53.8156 14.2065 53.8156 14.0414V12.8033C53.8156 12.6383 53.6505 12.4732 53.4029 12.4732Z" fill="white"/>
<path d="M37.6379 8.50964C36.8125 8.50964 36.2347 9.16996 36.2347 9.91282C36.2347 10.7382 36.8951 11.316 37.6379 11.316C38.4633 11.316 39.0411 10.6557 39.0411 9.91282C39.0411 9.50012 38.876 9.16996 38.6284 8.92234C38.3808 8.67472 37.9681 8.50964 37.6379 8.50964Z" fill="white"/>
<path d="M38.4629 12.4722H36.7296C36.5645 12.4722 36.3994 12.6372 36.3169 12.8023V20.5611C36.3169 20.7261 36.482 20.8912 36.6471 20.8912H38.3804C38.5455 20.8912 38.7105 20.7261 38.7105 20.5611V12.8023C38.7931 12.6372 38.628 12.4722 38.4629 12.4722Z" fill="white"/>
<path d="M68.0124 12.2246H67.5172C67.0219 12.2246 66.5267 12.3071 66.114 12.5548C65.8664 12.7198 65.6188 12.9675 65.4537 13.2151V13.2976L65.3711 13.3802C65.2886 13.3802 65.2886 13.2976 65.2061 13.2976V12.8024C65.2061 12.6373 65.041 12.4722 64.7934 12.4722H63.06C62.895 12.4722 62.7299 12.6373 62.6473 12.8024V20.5611C62.6473 20.7262 62.8124 20.8913 62.9775 20.8913H64.7108C64.8759 20.8913 65.041 20.7262 65.041 20.5611V17.0945C65.041 16.7643 65.041 16.3516 65.1235 16.0214C65.1235 15.6913 65.2886 15.4437 65.3711 15.196C65.5362 14.9484 65.7838 14.7833 66.0315 14.6183C66.2791 14.5357 66.6092 14.4532 66.9394 14.4532H67.8473C68.0124 14.4532 68.1775 14.2881 68.1775 14.123V12.6373C68.3426 12.3897 68.1775 12.2246 68.0124 12.2246Z" fill="white"/>
<path d="M61.0788 13.3802C60.7487 13.05 60.336 12.7198 59.9233 12.5548C59.428 12.3071 58.8503 12.2246 58.355 12.2246C57.7772 12.2246 57.1995 12.3071 56.6217 12.5548C56.1264 12.7198 55.6312 13.05 55.2185 13.3802C54.8058 13.7103 54.4757 14.2056 54.3106 14.7008C53.8153 15.9389 53.8153 17.3421 54.3106 18.5802C54.5582 19.0754 54.8884 19.5706 55.2185 19.9008C55.6312 20.3135 56.1264 20.5611 56.6217 20.7262C57.1995 20.8913 57.7772 21.0564 58.355 21.0564C59.0153 21.0564 59.6757 20.8913 60.2534 20.6437C60.7487 20.4786 61.1614 20.1484 61.4915 19.8183C61.6566 19.6532 61.6566 19.4881 61.4915 19.323L60.336 18.4976L60.2534 18.4151C60.0884 18.3325 59.9233 18.3325 59.8407 18.4976C59.6757 18.6627 59.5106 18.8278 59.3455 18.9929C59.0153 19.1579 58.6852 19.2405 58.355 19.2405C57.9423 19.2405 57.4471 19.0754 57.1169 18.8278C56.7042 18.4151 56.5391 17.9198 56.4566 17.4246C56.4566 17.3421 56.5391 17.2595 56.6217 17.2595H61.8217C61.9868 17.2595 62.1518 17.0945 62.1518 16.8468V16.4341C62.1518 15.8564 62.0693 15.2786 61.9042 14.7008C61.6566 14.2056 61.409 13.7929 61.0788 13.3802ZM59.428 15.5262H56.6217C56.5391 15.5262 56.4566 15.4437 56.4566 15.3611C56.4566 15.196 56.5391 15.1135 56.5391 14.9484C56.6217 14.7833 56.7042 14.6183 56.8693 14.4532C57.0344 14.2881 57.1995 14.2056 57.3645 14.123C57.6122 14.0405 57.8598 13.9579 58.1074 13.9579C58.5201 13.9579 58.9328 14.123 59.1804 14.3706C59.428 14.6183 59.5931 14.9484 59.5931 15.2786C59.5931 15.4437 59.5106 15.5262 59.428 15.5262Z" fill="white"/>
<path d="M35.0788 18.5809H30.8692C30.7867 18.5809 30.7042 18.4984 30.7042 18.4158V9.6666C30.7042 9.50153 30.5391 9.33645 30.374 9.25391H28.5581C28.393 9.25391 28.228 9.41899 28.228 9.6666V20.5618C28.228 20.8095 28.393 20.9745 28.6407 20.9745H35.1613C35.3264 20.9745 35.4915 20.8095 35.574 20.6444V18.9936C35.4089 18.746 35.3264 18.5809 35.0788 18.5809Z" fill="white"/>
<path d="M75.1103 13.3815C74.7802 13.0513 74.45 12.7212 73.9548 12.5561C73.377 12.391 72.7992 12.2259 72.2214 12.3085C71.5611 12.3085 70.9008 12.391 70.323 12.6386C69.8278 12.8037 69.4151 13.0513 69.0024 13.3815C68.8373 13.5465 68.8373 13.7942 69.0024 13.8767L69.7453 14.6196C69.9103 14.7846 70.158 14.7846 70.2405 14.6196C70.4056 14.4545 70.6532 14.2894 70.8183 14.2069C71.1484 14.0418 71.5611 13.9592 71.8913 13.9592C72.304 13.9592 72.7167 14.1243 72.9643 14.3719C73.2119 14.6196 73.377 15.0323 73.4595 15.6926C73.4595 15.7751 73.377 15.8577 73.2945 15.8577C73.0468 15.8577 72.7167 15.8577 72.3865 15.8577C71.9738 15.8577 71.5611 15.9402 71.231 15.9402C70.8183 16.0227 70.4881 16.1053 70.0754 16.1878C69.7453 16.2704 69.4151 16.4354 69.0849 16.6831C68.8373 16.8481 68.5897 17.1783 68.4246 17.5085C68.2595 17.8386 68.177 18.2513 68.177 18.664C68.177 18.9942 68.2595 19.4069 68.4246 19.737C68.5897 20.0672 68.7548 20.3148 69.0024 20.4799C69.25 20.7275 69.5802 20.81 69.9103 20.9751C70.2405 21.0577 70.6532 21.1402 70.9834 21.1402C71.4786 21.1402 71.9738 21.0577 72.3865 20.8926C72.7167 20.7275 73.0468 20.4799 73.2945 20.2323C73.377 20.2323 73.377 20.2323 73.4595 20.2323V20.3148V20.5624C73.4595 20.7275 73.6246 20.8926 73.7897 20.8926H75.358C75.523 20.8926 75.6881 20.7275 75.6881 20.5624V16.8481C75.6881 16.1053 75.6056 15.3624 75.523 14.6196C75.6056 14.2069 75.358 13.7116 75.1103 13.3815ZM73.6246 17.9212C73.6246 18.3338 73.4595 18.7465 73.0468 18.9942C72.8818 19.1592 72.6341 19.2418 72.4691 19.2418C72.2215 19.3243 71.9738 19.3243 71.8087 19.3243C71.5611 19.3243 71.231 19.2418 70.9834 19.1592C70.7357 19.0767 70.5707 18.8291 70.5707 18.4989C70.5707 18.2513 70.6532 18.0037 70.8183 17.8386C70.9834 17.6735 71.231 17.591 71.4786 17.5085C71.7262 17.4259 71.9738 17.3434 72.304 17.3434C72.5516 17.3434 72.7992 17.3434 72.9643 17.3434H73.377C73.4595 17.3434 73.5421 17.4259 73.5421 17.5085L73.6246 17.9212Z" fill="white"/>
<path d="M83.8598 13.2976C83.6122 12.9675 83.3645 12.6373 82.9518 12.4722C82.4566 12.2246 81.9614 12.1421 81.4661 12.1421C81.2185 12.1421 80.8884 12.1421 80.6407 12.2246C80.3931 12.3072 80.1455 12.3897 79.9804 12.5548C79.8153 12.6373 79.6503 12.8024 79.4852 12.9675C79.4026 13.05 79.4026 13.05 79.3201 13.1326C79.2376 13.2151 79.155 13.2151 79.155 13.1326V13.05V12.7199C79.155 12.4722 78.9899 12.3072 78.7423 12.3072H77.0915C76.8439 12.3072 76.6788 12.4722 76.6788 12.7199V20.4786C76.6788 20.6437 76.8439 20.8088 77.0915 20.8088H78.8249C78.9899 20.8088 79.155 20.6437 79.2376 20.4786V16.3516C79.2376 16.104 79.2376 15.8564 79.3201 15.6088C79.3201 15.3611 79.4026 15.1961 79.4852 14.9484C79.5677 14.7834 79.7328 14.6183 79.8979 14.4532C80.1455 14.3707 80.3931 14.2881 80.6407 14.2881C81.136 14.2056 81.6312 14.5357 81.7963 15.031C81.8788 15.2786 81.9614 15.4437 81.9614 15.6913C81.9614 15.9389 81.9614 16.1865 81.9614 16.4342V20.4786C81.9614 20.6437 82.1265 20.8088 82.3741 20.8088H84.1074C84.2725 20.8088 84.4376 20.6437 84.5201 20.4786V15.9389C84.5201 15.4437 84.5201 14.9484 84.4376 14.4532C84.2725 14.123 84.1074 13.7103 83.8598 13.2976Z" fill="white"/>
<path d="M93.4342 8.50964H91.7009C91.5358 8.50964 91.3708 8.67472 91.3708 8.8398V12.9668C91.3708 13.0493 91.2882 13.0493 91.2057 13.0493C91.2057 13.0493 91.1231 13.0493 91.1231 12.9668C90.8755 12.7192 90.6279 12.5541 90.2977 12.4715C89.8025 12.3065 89.3073 12.2239 88.8946 12.2239C88.3993 12.2239 87.8215 12.3065 87.4089 12.5541C86.9962 12.8017 86.5835 13.1319 86.2533 13.462C85.9231 13.8747 85.6755 14.2874 85.5104 14.7827C85.1803 16.0208 85.1803 17.2589 85.5104 18.4969C85.6755 18.9922 85.9231 19.4049 86.3358 19.8176C86.666 20.1477 87.0787 20.4779 87.5739 20.643C88.0692 20.8906 88.6469 20.9731 89.1422 20.9731C89.3898 20.9731 89.72 20.9731 89.9676 20.8906C90.2152 20.8081 90.4628 20.7255 90.7104 20.5604C90.8755 20.4779 91.1231 20.3128 91.2882 20.1477L91.4533 19.9827V19.9001H91.5358C91.6184 19.9001 91.6184 19.9827 91.7009 19.9827V20.3128C91.7009 20.4779 91.866 20.643 92.0311 20.643H93.5993C93.7644 20.643 93.9295 20.4779 93.9295 20.2303V8.92234C93.8469 8.67472 93.6819 8.50964 93.4342 8.50964ZM91.0406 18.4144C90.2152 19.1573 88.9771 19.1573 88.1517 18.4144C87.8216 18.0842 87.6565 17.2589 87.6565 16.6811C87.6565 16.1033 87.8216 15.3604 88.1517 15.0303C88.9771 14.2874 90.2152 14.2874 91.0406 15.0303C91.3708 15.443 91.5358 16.1033 91.5358 16.6811C91.5358 17.2589 91.3708 18.0017 91.0406 18.4144Z" fill="white"/>
<path d="M101.936 13.5468C101.523 13.1341 101.028 12.8865 100.533 12.7214C99.3773 12.3087 98.2218 12.3087 97.0662 12.7214C96.571 12.8865 96.0757 13.2166 95.663 13.5468C95.2503 13.8769 94.9202 14.3722 94.7551 14.8674C94.2599 16.1055 94.2599 17.5087 94.7551 18.7468C95.0027 19.242 95.3329 19.7373 95.663 20.0674C96.0757 20.4801 96.571 20.7277 97.0662 20.8928C98.2218 21.3055 99.3773 21.3055 100.533 20.8928C101.028 20.7277 101.523 20.3976 101.936 20.0674C102.349 19.7373 102.679 19.242 102.844 18.7468C103.339 17.5087 103.339 16.1055 102.844 14.8674C102.679 14.3722 102.349 13.9595 101.936 13.5468ZM100.285 18.5817C99.4599 19.3246 98.2218 19.3246 97.3964 18.5817C97.0662 18.2515 96.9011 17.5087 96.9011 16.8484C96.9011 16.2706 97.0662 15.5277 97.3964 15.115C98.2218 14.3722 99.4599 14.3722 100.285 15.115C100.615 15.4452 100.78 16.1881 100.78 16.8484C100.78 17.4262 100.615 18.169 100.285 18.5817Z" fill="white"/>
<path d="M10.7294 0.916239C11.1421 0.58608 11.7199 0.58608 12.2151 0.916239C13.3707 1.6591 14.4437 2.40195 15.4342 3.22735C15.4342 3.22735 15.6818 3.39243 15.7644 3.06227C15.7644 3.06227 15.6818 2.07179 15.8469 1.74164C15.9294 1.49402 16.1771 1.32894 16.4247 1.32894C16.4247 1.32894 17.6628 1.41148 18.4882 1.49402C18.8183 1.57656 19.1485 1.82418 19.1485 2.23687C19.1485 2.23687 19.6437 5.70354 19.8088 6.94164C19.8088 6.94164 19.8913 7.60195 20.7993 8.67497C20.7993 8.67497 22.6977 11.3162 22.8628 11.8115C22.8628 11.8115 23.2755 12.7194 22.3675 12.802C22.3675 12.802 20.6342 12.967 20.4691 12.967C20.2215 12.967 20.0564 13.2147 20.0564 13.4623C20.0564 13.4623 19.9739 19.4877 19.5612 22.4591C19.5612 22.4591 19.4786 23.6147 18.8183 23.6147C18.8183 23.6147 17.085 23.5321 16.6723 23.5321C16.6723 23.5321 16.5072 23.5321 16.5072 23.2845C16.5072 23.2845 17.4151 13.7924 16.7548 9.08767C16.7548 9.08767 16.7548 8.50989 16.2596 8.34481C16.2596 8.34481 15.8469 8.17973 15.4342 8.75751C15.4342 8.75751 12.6278 12.3067 12.6278 17.2591C12.6278 17.2591 12.5453 18.7448 12.7929 19.1575C12.7929 19.1575 12.958 19.4051 13.7009 19.4877L14.6088 19.6527C14.6088 19.6527 14.7739 19.6527 14.7739 19.9004C14.7739 19.9004 14.6088 22.7067 14.5263 23.202C14.5263 23.2845 14.5263 23.4496 14.4437 23.5321C14.4437 23.5321 14.4437 23.6147 14.1136 23.6147C14.1136 23.6147 10.0691 23.6147 9.57388 23.6147C9.57388 23.6147 9.4088 23.6147 9.32626 23.5321C9.24372 23.4496 9.07864 19.9829 9.07864 19.4877C9.07864 19.4051 9.16118 19.3226 9.24372 19.24C9.90404 18.8273 10.3167 18.167 10.3993 17.4242C10.3993 17.4242 10.4818 17.1766 10.3993 15.8559C10.3993 15.8559 10.5644 10.5734 10.5644 9.66545C10.5644 9.66545 10.5644 9.41783 10.2342 9.33529C10.0691 9.33529 9.90404 9.41783 9.8215 9.58291C9.8215 9.58291 9.57388 13.0496 9.65642 14.4527C9.65642 14.4527 9.73896 15.3607 9.07864 15.3607C9.07864 15.3607 8.50086 15.4432 8.41832 14.7004C8.41832 14.7004 8.50086 11.3162 8.5834 9.58291C8.5834 9.41783 8.41832 9.25275 8.1707 9.25275C8.00562 9.25275 7.758 9.33529 7.758 9.58291C7.758 9.58291 7.51039 12.8845 7.59292 14.5353C7.59292 14.5353 7.67546 15.3607 7.01515 15.3607C7.01515 15.3607 6.43737 15.4432 6.43737 14.7004C6.43737 14.7004 6.60245 9.9956 6.60245 9.66545C6.60245 9.41783 6.43737 9.25275 6.27229 9.25275C6.10721 9.25275 5.85959 9.33529 5.85959 9.58291C5.85959 9.58291 5.61197 15.1956 5.69451 16.8464C5.69451 16.8464 5.69451 18.4972 6.93261 19.24C6.93261 19.24 7.09769 19.3226 7.09769 19.4877C7.09769 19.4877 7.26277 22.4591 7.34531 23.367C7.34531 23.367 7.42785 23.6147 7.18023 23.6147L4.12626 23.7797C4.12626 23.7797 3.63102 23.7797 3.46594 23.202C3.3834 22.6242 2.80562 17.6718 2.88816 13.7099C2.88816 13.4623 2.72308 13.2147 2.47546 13.2147C2.47546 13.2147 0.90721 13.0496 0.494512 12.967C0.164353 12.8845 -0.0832659 12.4718 -0.000726221 12.1416C-0.000726221 12.0591 -0.000726221 12.0591 0.0818135 11.9766C0.0818135 11.9766 3.54848 5.37338 10.7294 0.916239Z" fill="white"/>
</svg>
