<svg width="23" height="24" viewBox="0 0 23 24" fill="none" xmlns="http://www.w3.org/2000/svg">
<path d="M10.7294 0.916239C11.1421 0.58608 11.7199 0.58608 12.2151 0.916239C13.3707 1.6591 14.4437 2.40195 15.4342 3.22735C15.4342 3.22735 15.6818 3.39243 15.7644 3.06227C15.7644 3.06227 15.6818 2.07179 15.8469 1.74164C15.9294 1.49402 16.1771 1.32894 16.4247 1.32894C16.4247 1.32894 17.6628 1.41148 18.4882 1.49402C18.8183 1.57656 19.1485 1.82418 19.1485 2.23687C19.1485 2.23687 19.6437 5.70354 19.8088 6.94164C19.8088 6.94164 19.8913 7.60195 20.7993 8.67497C20.7993 8.67497 22.6977 11.3162 22.8628 11.8115C22.8628 11.8115 23.2755 12.7194 22.3675 12.802C22.3675 12.802 20.6342 12.967 20.4691 12.967C20.2215 12.967 20.0564 13.2147 20.0564 13.4623C20.0564 13.4623 19.9739 19.4877 19.5612 22.4591C19.5612 22.4591 19.4786 23.6147 18.8183 23.6147C18.8183 23.6147 17.085 23.5321 16.6723 23.5321C16.6723 23.5321 16.5072 23.5321 16.5072 23.2845C16.5072 23.2845 17.4151 13.7924 16.7548 9.08767C16.7548 9.08767 16.7548 8.50989 16.2596 8.34481C16.2596 8.34481 15.8469 8.17973 15.4342 8.75751C15.4342 8.75751 12.6278 12.3067 12.6278 17.2591C12.6278 17.2591 12.5453 18.7448 12.7929 19.1575C12.7929 19.1575 12.958 19.4051 13.7009 19.4877L14.6088 19.6527C14.6088 19.6527 14.7739 19.6527 14.7739 19.9004C14.7739 19.9004 14.6088 22.7067 14.5263 23.202C14.5263 23.2845 14.5263 23.4496 14.4437 23.5321C14.4437 23.5321 14.4437 23.6147 14.1136 23.6147C14.1136 23.6147 10.0691 23.6147 9.57388 23.6147C9.57388 23.6147 9.4088 23.6147 9.32626 23.5321C9.24372 23.4496 9.07864 19.9829 9.07864 19.4877C9.07864 19.4051 9.16118 19.3226 9.24372 19.24C9.90404 18.8273 10.3167 18.167 10.3993 17.4242C10.3993 17.4242 10.4818 17.1766 10.3993 15.8559C10.3993 15.8559 10.5644 10.5734 10.5644 9.66545C10.5644 9.66545 10.5644 9.41783 10.2342 9.33529C10.0691 9.33529 9.90404 9.41783 9.8215 9.58291C9.8215 9.58291 9.57388 13.0496 9.65642 14.4527C9.65642 14.4527 9.73896 15.3607 9.07864 15.3607C9.07864 15.3607 8.50086 15.4432 8.41832 14.7004C8.41832 14.7004 8.50086 11.3162 8.5834 9.58291C8.5834 9.41783 8.41832 9.25275 8.1707 9.25275C8.00562 9.25275 7.758 9.33529 7.758 9.58291C7.758 9.58291 7.51039 12.8845 7.59292 14.5353C7.59292 14.5353 7.67546 15.3607 7.01515 15.3607C7.01515 15.3607 6.43737 15.4432 6.43737 14.7004C6.43737 14.7004 6.60245 9.9956 6.60245 9.66545C6.60245 9.41783 6.43737 9.25275 6.27229 9.25275C6.10721 9.25275 5.85959 9.33529 5.85959 9.58291C5.85959 9.58291 5.61197 15.1956 5.69451 16.8464C5.69451 16.8464 5.69451 18.4972 6.93261 19.24C6.93261 19.24 7.09769 19.3226 7.09769 19.4877C7.09769 19.4877 7.26277 22.4591 7.34531 23.367C7.34531 23.367 7.42785 23.6147 7.18023 23.6147L4.12626 23.7797C4.12626 23.7797 3.63102 23.7797 3.46594 23.202C3.3834 22.6242 2.80562 17.6718 2.88816 13.7099C2.88816 13.4623 2.72308 13.2147 2.47546 13.2147C2.47546 13.2147 0.90721 13.0496 0.494512 12.967C0.164353 12.8845 -0.0832659 12.4718 -0.000726221 12.1416C-0.000726221 12.0591 -0.000726221 12.0591 0.0818135 11.9766C0.0818135 11.9766 3.54848 5.37338 10.7294 0.916239Z" fill="white"/>
</svg>
